#!OML:ASF E:\Steps\Project 1\Capture day 1\Session 2\Subject.ASF
:FULLY-SPECIFIED
:DEGREES
48
root 8.80939 16.322 30.9098 -151.287 -0.582592 179.059
lowerback -29.2816 -1.38505 -6.4842
upperback -2.40858 -0.498954 -0.600204
thorax 12.7405 -0.920825 2.60243
lowerneck -8.49284 -2.22424 1.08244
upperneck 0.987777 -3.26983 2.4007
head 1.77754 -1.61029 0.436422
rclavicle 0 -3.97569e-016
rhumerus -36.85 -19.6536 -80.1702
rradius 30.5203
rwrist -0.659488
rhand -7.35796 -51.7257
rfingers 7.12502
rthumb 18.5265 -80.8635
lclavicle 0 -3.97569e-016
lhumerus -30.1197 7.63004 80.4889
lradius 21.0189
lwrist -5.93473
lhand -21.0324 -13.435
lfingers 7.12502
lthumb 5.34306 16.4776
rfemur -24.6063 6.52403 17.6699
rtibia 5.57865
rfoot -18.4911 -8.31694
rtoes -31.3354
lfemur -25.494 -9.29246 -18.1397
ltibia 7.64747
lfoot -8.62134 2.09018
ltoes -30.6241
49
root 8.80774 16.3224 30.9078 -151.222 -0.50729 178.952
lowerback -29.3268 -1.40534 -6.59083
upperback -2.42463 -0.491818 -0.629179
thorax 12.7399 -0.925415 2.62984
lowerneck -7.99189 -2.25586 0.888187
upperneck 0.424238 -3.28931 2.65299
head 1.51402 -1.63148 0.556529
rclavicle -1.49089e-015 7.55382e-015
rhumerus -36.8902 -19.618 -80.1924
rradius 30.5755
rwrist -0.590703
rhand -7.32575 -51.723
rfingers 7.12502
rthumb 18.5575 -80.8578
lclavicle -1.49089e-015 7.55382e-015
lhumerus -30.1759 7.56803 80.5372
lradius 21.1656
lwrist -5.85228
lhand -21.1515 -13.1894
lfingers 7.12502
lthumb 5.22803 16.7261
rfemur -24.5615 5.59386 17.7464
rtibia 5.33594
rfoot -18.3355 -7.4906
rtoes -32.0426
lfemur -25.5285 -9.34271 -18.2772
ltibia 7.60955
lfoot -8.63536 2.13695
ltoes -30.376
50
root 8.80669 16.3227 30.9054 -151.174 -0.469363 178.914
lowerback -29.4071 -1.40382 -6.61112
upperback -2.40429 -0.474268 -0.650236
thorax 12.7967 -0.920499 2.62297
lowerneck -7.83666 -2.28017 0.805544
upperneck 0.240054 -3.31508 2.78244
head 1.43178 -1.64767 0.612695
rclavicle -6.16232e-015 2.82274e-014
rhumerus -36.8855 -19.6753 -80.2121
rradius 30.6038
rwrist -0.45066
rhand -7.33083 -51.7378
rfingers 7.12502
rthumb 18.5526 -80.8731
lclavicle -6.16232e-015 2.82274e-014
lhumerus -30.1635 7.53742 80.5675
lradius 21.2584
lwrist -5.81767
lhand -21.1814 -13.1684
lfingers 7.12502
lthumb 5.19919 16.7478
rfemur -24.7388 6.23018 17.5341
rtibia 5.65065
rfoot -18.5262 -8.2077
rtoes -32.7291
lfemur -25.6066 -9.27719 -18.3563
ltibia 7.69182
lfoot -8.7124 2.10086
ltoes -30.4663
51
root 8.80719 16.3224 30.9039 -151.176 -0.508571 178.998
lowerback -29.4074 -1.37953 -6.51757
upperback -2.40447 -0.473594 -0.632822
thorax 12.7979 -0.914919 2.59186
lowerneck -7.98619 -2.28985 0.828877
upperneck 0.507849 -3.33294 2.76458
head 1.54418 -1.64914 0.59951
rclavicle 4.96962e-016 4.85035e-014
rhumerus -36.929 -19.6633 -80.2108
rradius 30.6261
rwrist -0.434119
rhand -7.33297 -51.795
rfingers 7.12502
rthumb 18.5506 -80.9305
lclavicle 4.96962e-016 4.85035e-014
lhumerus -30.1253 7.52791 80.5558
lradius 21.2265
lwrist -5.80467
lhand -21.057 -13.5095
lfingers 7.12502
lthumb 5.31928 16.4038
rfemur -24.7534 6.46247 17.5857
rtibia 5.68824
rfoot -18.653 -8.35745
rtoes -32.661
lfemur -25.6356 -9.23573 -18.2516
ltibia 7.74573
lfoot -8.76588 2.11283
ltoes -30.7971
52
root 8.8086 16.3214 30.9036 -151.195 -0.553397 179.129
lowerback -29.3672 -1.3598 -6.4068
upperback -2.40229 -0.488124 -0.584714
thorax 12.7859 -0.914227 2.57985
lowerneck -8.12191 -2.26207 0.852706
upperneck 0.664468 -3.29969 2.71061
head 1.61715 -1.62893 0.577524
rclavicle -1.78906e-015 4.92986e-014
rhumerus -36.9306 -19.5495 -80.2392
rradius 30.6633
rwrist -0.559259
rhand -7.28872 -51.812
rfingers 7.12502
rthumb 18.5931 -80.9434
lclavicle -1.78906e-015 4.92986e-014
lhumerus -30.0433 7.55497 80.5403
lradius 21.1418
lwrist -5.82352
lhand -20.9152 -13.8108
lfingers 7.12502
lthumb 5.45619 16.099
rfemur -24.7408 6.47457 17.7549
rtibia 5.68083
rfoot -18.6755 -8.30608
rtoes -32.3298
lfemur -25.6048 -9.23187 -18.0683
ltibia 7.70325
lfoot -8.72996 2.19919
ltoes -31.398
53
root 8.80974 16.3212 30.9037 -151.232 -0.54633 179.152
lowerback -29.3046 -1.35498 -6.40097
upperback -2.3587 -0.476566 -0.573284
thorax 12.8073 -0.905561 2.59525
lowerneck -8.3631 -2.23432 0.890977
upperneck 0.77472 -3.27165 2.63781
head 1.69345 -1.61324 0.545973
rclavicle -1.88845e-015 3.02153e-014
rhumerus -36.8355 -19.5105 -80.2857
rradius 30.6911
rwrist -0.633744
rhand -7.21572 -51.7466
rfingers 7.12502
rthumb 18.6633 -80.8712
lclavicle -1.88845e-015 3.02153e-014
lhumerus -29.8942 7.59611 80.5497
lradius 21.0713
lwrist -5.87574
lhand -20.9573 -13.8368
lfingers 7.12502
lthumb 5.4156 16.074
rfemur -24.6919 6.41253 17.7976
rtibia 5.65103
rfoot -18.5951 -8.26426
rtoes -31.9864
lfemur -25.5398 -9.20832 -18.0395
ltibia 7.64757
lfoot -8.7056 2.19072
ltoes -31.5939
54
root 8.80931 16.322 30.9032 -151.233 -0.499907 179.047
lowerback -29.2811 -1.3636 -6.50871
upperback -2.34054 -0.446237 -0.615155
thorax 12.8131 -0.896346 2.61999
lowerneck -8.52639 -2.22993 0.938784
upperneck 0.879142 -3.27518 2.6073
head 1.75522 -1.61274 0.525717
rclavicle 5.36719e-015 2.14687e-014
rhumerus -36.8103 -19.5808 -80.2842
rradius 30.6975
rwrist -0.613291
rhand -7.17838 -51.6296
rfingers 7.12502
rthumb 18.6993 -80.7508
lclavicle 5.36719e-015 2.14687e-014
lhumerus -29.8135 7.57563 80.543
lradius 21.0554
lwrist -5.83162
lhand -21.0261 -13.6539
lfingers 7.12502
lthumb 5.34917 16.2586
rfemur -24.6569 6.43178 17.645
rtibia 5.58727
rfoot -18.5412 -8.26013
rtoes -31.6675
lfemur -25.5053 -9.3722 -18.1351
ltibia 7.60175
lfoot -8.74982 2.25841
ltoes -30.9723
55
root 8.80857 16.3222 30.9011 -151.234 -0.459485 178.984
lowerback -29.2706 -1.36028 -6.58235
upperback -2.33647 -0.414035 -0.656718
thorax 12.8087 -0.885151 2.627
lowerneck -8.67097 -2.21767 1.02175
upperneck 1.01894 -3.27147 2.57716
head 1.82471 -1.60756 0.499894
rclavicle 5.96354e-016 -4.8901e-014
rhumerus -36.7966 -19.6506 -80.2915
rradius 30.6631
rwrist -0.580777
rhand -7.18264 -51.5287
rfingers 7.12502
rthumb 18.6952 -80.6504
lclavicle 5.96354e-016 -4.8901e-014
lhumerus -29.8286 7.44294 80.5321
lradius 21.1517
lwrist -5.7225
lhand -21.0654 -13.6039
lfingers 7.12502
lthumb 5.31122 16.3096
rfemur -24.6648 6.45988 17.5567
rtibia 5.62335
rfoot -18.5129 -8.32055
rtoes -31.6917
lfemur -25.4329 -9.63479 -18.1576
ltibia 7.49201
lfoot -8.75221 2.47587
ltoes -30.5259
56
root 8.80782 16.3224 30.8984 -151.26 -0.441215 178.946
lowerback -29.2493 -1.35827 -6.60929
upperback -2.28529 -0.38787 -0.697988
thorax 12.8546 -0.872584 2.60762
lowerneck -8.94524 -2.20863 1.13466
upperneck 1.16241 -3.28086 2.53709
head 1.91838 -1.60918 0.46363
rclavicle -6.26172e-015 1.55052e-014
rhumerus -36.6637 -19.7683 -80.3384
rradius 30.5816
rwrist -0.448597
rhand -7.18051 -51.5005
rfingers 7.12502
rthumb 18.6972 -80.6219
lclavicle -6.26172e-015 1.55052e-014
lhumerus -29.7979 7.27459 80.5473
lradius 21.295
lwrist -5.62571
lhand -21.1532 -13.9886
lfingers 7.12502
lthumb 5.22645 15.9269
rfemur -24.6406 6.43422 17.522
rtibia 5.65851
rfoot -18.5457 -8.26018
rtoes -31.7361
lfemur -25.3614 -9.59227 -18.2326
ltibia 7.43384
lfoot -8.72639 2.44677
ltoes -30.552
57
root 8.80592 16.3231 30.8971 -151.215 -0.461498 178.934
lowerback -29.2795 -1.3532 -6.58051
upperback -2.27278 -0.384337 -0.718825
thorax 12.8821 -0.869795 2.57042
lowerneck -9.1291 -2.21175 1.19128
upperneck 1.28089 -3.29689 2.50652
head 1.98916 -1.61448 0.440751
rclavicle 5.1684e-015 -3.18055e-014
rhumerus -36.5987 -19.8917 -80.3415
rradius 30.5312
rwrist -0.311668
rhand -7.17143 -51.4884
rfingers 7.12502
rthumb 18.7059 -80.609
lclavicle 5.1684e-015 -3.18055e-014
lhumerus -29.7508 7.19354 80.5574
lradius 21.3635
lwrist -5.51539
lhand -21.0695 -14.1817
lfingers 7.12502
lthumb 5.30723 15.7318
rfemur -24.6772 6.37053 17.5137
rtibia 5.6548
rfoot -18.644 -8.1406
rtoes -31.5556
lfemur -25.449 -9.43687 -18.2906
ltibia 7.51679
lfoot -8.71624 2.2953
ltoes -30.1746
